<svg width="27" height="27" viewBox="0 0 27 27" fill="none" xmlns="http://www.w3.org/2000/svg">
<g id="Icons/calendar">
<path id="Combined Shape" fill-rule="evenodd" clip-rule="evenodd" d="M4.5 1.5V3H2.9925C1.338 3 0 4.3395 0 5.991V24.009C0 25.659 1.3395 27 2.9925 27H24.0075C25.662 27 27 25.6605 27 24.009V5.991C27 4.3425 25.6605 3 24.0075 3H22.5V1.5C22.5 0.672 21.828 0 21 0C20.172 0 19.5 0.672 19.5 1.5V3H7.5V1.5C7.5 0.672 6.828 0 6 0C5.172 0 4.5 0.672 4.5 1.5ZM24 9H3V22.5C3 23.3284 3.67157 24 4.5 24H22.5C23.3284 24 24 23.3284 24 22.5V9ZM9 15V11.9985H6V15H9ZM21 11.9985V15H18V11.9985H21ZM12 15H15.0015V11.9985H12V15ZM9 18V21H6V18H9ZM12 21H15.0015V18H12V21ZM21 18V21H18V18H21Z" fill="#90A1BE"/>
</g>
</svg>
