<svg width="29" height="29" viewBox="0 0 29 29" fill="none" xmlns="http://www.w3.org/2000/svg">
<path d="M0.678973 0H13.5793C21.829 0 28.5167 6.76148 28.5167 15.1022V15.6162H18.4336L14.6605 7.56257L11.5262 16.1185L8.24175 4.82803L4.04043 14.5977H0.0242652C0.0081567 14.3103 0 14.0208 0 13.7293V0.686469C0 0.307347 0.30397 0 0.678973 0Z" fill="white"/>
<path d="M0.276139 16.6346C1.61585 23.5852 7.67062 28.8315 14.9373 28.8315H27.8377C28.2127 28.8315 28.5167 28.5241 28.5167 28.145V17.6531H17.1587L14.8879 12.8063L11.3067 22.5825L7.87556 10.7881L5.36133 16.6346H0.276139Z" fill="#01CDFF"/>
</svg>
